<svg xmlns="http://www.w3.org/2000/svg" width="61.373" height="59.598" viewBox="0 0 61.373 59.598">
  <path id="bullhorn-solid" d="M46.672,19.447a5.162,5.162,0,0,0-2.593-4.466V2.594A2.619,2.619,0,0,0,41.486,0a2.587,2.587,0,0,0-1.619.569l-6.89,5.512a19.666,19.666,0,0,1-12.234,4.29H5.186A5.185,5.185,0,0,0,0,15.557v7.779a5.185,5.185,0,0,0,5.186,5.186H7.916a19.69,19.69,0,0,0-.177,2.593A20.526,20.526,0,0,0,9.811,40.1a2.543,2.543,0,0,0,2.3,1.382h6.019a2.576,2.576,0,0,0,2.1-4.1,10.319,10.319,0,0,1-2.119-6.275,9.805,9.805,0,0,1,.357-2.593h2.275a19.663,19.663,0,0,1,12.234,4.29l6.89,5.512A2.592,2.592,0,0,0,44.078,36.3V23.914A5.164,5.164,0,0,0,46.672,19.447ZM38.893,30.905l-2.678-2.142a24.859,24.859,0,0,0-15.472-5.427V15.557A24.859,24.859,0,0,0,36.215,10.13l2.678-2.142Z" transform="translate(0 24.038) rotate(-31)" fill="#fff"/>
</svg>
